<svg xmlns="http://www.w3.org/2000/svg" xmlns:xlink="http://www.w3.org/1999/xlink" width="500" zoomAndPan="magnify" viewBox="0 0 375 374.999991" height="500" preserveAspectRatio="xMidYMid meet" version="1.0"><defs><g/><clipPath id="25c4ca2f52"><rect x="0" width="235" y="0" height="209"/></clipPath><clipPath id="d18ea59257"><rect x="0" width="187" y="0" height="18"/></clipPath></defs><g transform="matrix(1, 0, 0, 1, 67, 57)"><g clip-path="url(#25c4ca2f52)"><g fill="#0cc0df" fill-opacity="1"><g transform="translate(1.268009, 155.948896)"><g><path d="M 107.328125 -55.640625 C 108.296875 -46.085938 107.328125 -37.160156 104.421875 -28.859375 C 101.515625 -20.554688 97.191406 -13.738281 91.453125 -8.40625 C 85.710938 -3.082031 79.035156 -0.00390625 71.421875 0.828125 C 66.710938 1.378906 62.109375 0.863281 57.609375 -0.71875 C 53.109375 -2.3125 48.851562 -4.632812 44.84375 -7.6875 L 44.84375 -4.359375 C 44.84375 -3.109375 44.425781 -2.066406 43.59375 -1.234375 C 42.769531 -0.410156 41.734375 0 40.484375 0 L 5.1875 0 L 5.1875 -1.25 C 7.539062 -1.664062 9.546875 -2.84375 11.203125 -4.78125 C 12.867188 -6.71875 13.703125 -8.929688 13.703125 -11.421875 L 13.703125 -128.71875 C 13.703125 -131.207031 12.867188 -133.421875 11.203125 -135.359375 C 9.546875 -137.296875 7.539062 -138.472656 5.1875 -138.890625 L 5.1875 -140.140625 L 40.6875 -145.328125 C 40.832031 -145.328125 40.9375 -145.328125 41 -145.328125 C 41.070312 -145.328125 41.175781 -145.328125 41.3125 -145.328125 C 43.664062 -145.328125 44.84375 -144.082031 44.84375 -141.59375 L 44.84375 -99.65625 C 49.269531 -102.007812 54.253906 -103.460938 59.796875 -104.015625 C 67.398438 -104.847656 74.660156 -103.1875 81.578125 -99.03125 C 88.503906 -94.875 94.285156 -89.023438 98.921875 -81.484375 C 103.554688 -73.941406 106.359375 -65.328125 107.328125 -55.640625 Z M 51.90625 -7.6875 C 56.46875 -7.6875 60.617188 -9.757812 64.359375 -13.90625 C 68.097656 -18.0625 71.070312 -23.632812 73.28125 -30.625 C 75.5 -37.613281 76.609375 -45.328125 76.609375 -53.765625 C 76.609375 -62.347656 75.5 -70.097656 73.28125 -77.015625 C 71.070312 -83.941406 68.097656 -89.476562 64.359375 -93.625 C 60.617188 -97.78125 56.46875 -99.859375 51.90625 -99.859375 C 49.6875 -99.859375 47.332031 -99.304688 44.84375 -98.203125 L 44.84375 -9.34375 C 47.332031 -8.238281 49.6875 -7.6875 51.90625 -7.6875 Z M 51.90625 -7.6875 "/></g></g></g><g fill="#0cc0df" fill-opacity="1"><g transform="translate(116.278211, 155.948896)"><g><path d="M 87.40625 -22.421875 C 92.664062 -21.171875 97.335938 -18.816406 101.421875 -15.359375 C 105.503906 -11.898438 108.753906 -7.675781 111.171875 -2.6875 C 113.597656 2.289062 114.8125 7.6875 114.8125 13.5 C 114.8125 20.28125 113.21875 26.4375 110.03125 31.96875 C 106.851562 37.507812 102.632812 41.9375 97.375 45.25 C 92.113281 48.570312 86.296875 50.234375 79.921875 50.234375 C 74.671875 50.234375 69.691406 49.160156 64.984375 47.015625 C 60.273438 44.878906 56.5 42.007812 53.65625 38.40625 C 50.820312 34.8125 49.40625 30.9375 49.40625 26.78125 C 49.40625 22.351562 51 18.546875 54.1875 15.359375 C 57.375 12.179688 61.179688 10.59375 65.609375 10.59375 C 70.035156 10.59375 73.804688 12.179688 76.921875 15.359375 C 80.035156 18.546875 81.59375 22.351562 81.59375 26.78125 C 81.59375 31.34375 80.066406 35.148438 77.015625 38.203125 C 76.046875 39.171875 75.21875 40.207031 74.53125 41.3125 C 73.84375 42.414062 73.5 43.523438 73.5 44.640625 C 73.5 47.546875 75.640625 49 79.921875 49 C 86.148438 49 91.789062 47.40625 96.84375 44.21875 C 101.894531 41.039062 105.941406 36.75 108.984375 31.34375 C 112.035156 25.945312 113.5625 20 113.5625 13.5 C 113.5625 8.507812 112.421875 4.007812 110.140625 0 C 107.859375 -4.007812 104.8125 -7.191406 101 -9.546875 C 97.195312 -11.898438 92.941406 -13.078125 88.234375 -13.078125 C 83.390625 -13.078125 78.992188 -11.796875 75.046875 -9.234375 C 71.109375 -6.671875 67.40625 -3.554688 63.9375 0.109375 C 60.476562 3.773438 57.019531 7.472656 53.5625 11.203125 C 50.101562 14.941406 46.363281 18.09375 42.34375 20.65625 C 38.332031 23.21875 33.769531 24.5 28.65625 24.5 C 23.8125 24.5 19.347656 23.253906 15.265625 20.765625 C 11.179688 18.273438 7.960938 14.882812 5.609375 10.59375 C 3.253906 6.300781 2.078125 1.59375 2.078125 -3.53125 C 2.078125 -9.894531 3.875 -15.53125 7.46875 -20.4375 C 11.070312 -25.351562 15.640625 -28.644531 21.171875 -30.3125 C 17.992188 -34.1875 15.503906 -38.507812 13.703125 -43.28125 C 11.898438 -48.0625 11 -53.082031 11 -58.34375 C 11 -66.78125 13.144531 -74.457031 17.4375 -81.375 C 21.726562 -88.300781 27.4375 -93.804688 34.5625 -97.890625 C 41.695312 -101.972656 49.625 -104.015625 58.34375 -104.015625 C 65.394531 -104.015625 72.035156 -102.628906 78.265625 -99.859375 C 74.804688 -103.046875 71.347656 -107.195312 67.890625 -112.3125 C 64.429688 -117.4375 62.703125 -123.046875 62.703125 -129.140625 C 62.703125 -133.566406 64.289062 -137.367188 67.46875 -140.546875 C 70.65625 -143.734375 74.460938 -145.328125 78.890625 -145.328125 C 83.316406 -145.328125 87.085938 -143.734375 90.203125 -140.546875 C 93.316406 -137.367188 94.875 -133.566406 94.875 -129.140625 C 94.875 -125.671875 93.867188 -122.617188 91.859375 -119.984375 C 89.859375 -117.359375 87.335938 -115.359375 84.296875 -113.984375 C 79.585938 -112.046875 77.234375 -109.414062 77.234375 -106.09375 C 77.234375 -104.289062 77.957031 -102.554688 79.40625 -100.890625 C 80.863281 -99.234375 82.628906 -97.710938 84.703125 -96.328125 C 91.210938 -92.179688 96.332031 -86.816406 100.0625 -80.234375 C 103.800781 -73.660156 105.671875 -66.363281 105.671875 -58.34375 C 105.671875 -51.144531 104.046875 -44.394531 100.796875 -38.09375 C 97.546875 -31.800781 93.082031 -26.578125 87.40625 -22.421875 Z M 58.34375 -102.765625 C 47.6875 -102.765625 42.359375 -87.957031 42.359375 -58.34375 C 42.359375 -32.320312 46.507812 -17.71875 54.8125 -14.53125 C 57.164062 -15.914062 59.484375 -17.160156 61.765625 -18.265625 C 64.046875 -19.378906 66.296875 -20.347656 68.515625 -21.171875 C 72.523438 -28.367188 74.53125 -40.757812 74.53125 -58.34375 C 74.53125 -87.957031 69.132812 -102.765625 58.34375 -102.765625 Z M 14.953125 -17.640625 C 14.953125 -13.910156 16.300781 -10.691406 19 -7.984375 C 21.695312 -5.285156 24.914062 -3.9375 28.65625 -3.9375 C 32.53125 -3.9375 36.40625 -4.90625 40.28125 -6.84375 C 44.15625 -8.78125 48.164062 -10.859375 52.3125 -13.078125 C 46.226562 -13.910156 40.554688 -15.78125 35.296875 -18.6875 C 30.035156 -21.59375 25.535156 -25.191406 21.796875 -29.484375 C 17.234375 -26.710938 14.953125 -22.765625 14.953125 -17.640625 Z M 14.953125 -17.640625 "/></g></g></g></g></g><g transform="matrix(1, 0, 0, 1, 8, 280)"><g clip-path="url(#d18ea59257)"><g fill="#3d3b3a" fill-opacity="1"><g transform="translate(0.313865, 13.110454)"><g><path d="M 7.953125 -5.171875 C 8.609375 -5.023438 9.113281 -4.738281 9.46875 -4.3125 C 9.832031 -3.894531 10.015625 -3.347656 10.015625 -2.671875 C 10.015625 -1.816406 9.695312 -1.15625 9.0625 -0.6875 C 8.425781 -0.226562 7.488281 0 6.25 0 L 1.640625 0 L 1.640625 -10.03125 L 5.953125 -10.03125 C 7.078125 -10.03125 7.945312 -9.804688 8.5625 -9.359375 C 9.175781 -8.910156 9.484375 -8.273438 9.484375 -7.453125 C 9.484375 -6.898438 9.347656 -6.425781 9.078125 -6.03125 C 8.804688 -5.644531 8.429688 -5.359375 7.953125 -5.171875 Z M 2.6875 -9.15625 L 2.6875 -5.515625 L 5.890625 -5.515625 C 6.703125 -5.515625 7.328125 -5.671875 7.765625 -5.984375 C 8.203125 -6.296875 8.421875 -6.75 8.421875 -7.34375 C 8.421875 -7.925781 8.203125 -8.375 7.765625 -8.6875 C 7.328125 -9 6.703125 -9.15625 5.890625 -9.15625 Z M 6.234375 -0.875 C 7.128906 -0.875 7.804688 -1.023438 8.265625 -1.328125 C 8.722656 -1.640625 8.953125 -2.117188 8.953125 -2.765625 C 8.953125 -4.015625 8.046875 -4.640625 6.234375 -4.640625 L 2.6875 -4.640625 L 2.6875 -0.875 Z M 6.234375 -0.875 "/></g></g></g><g fill="#3d3b3a" fill-opacity="1"><g transform="translate(15.422878, 13.110454)"><g><path d="M 8.484375 0 L 6.1875 -3.21875 C 5.925781 -3.195312 5.660156 -3.1875 5.390625 -3.1875 L 2.6875 -3.1875 L 2.6875 0 L 1.640625 0 L 1.640625 -10.03125 L 5.390625 -10.03125 C 6.671875 -10.03125 7.671875 -9.722656 8.390625 -9.109375 C 9.117188 -8.503906 9.484375 -7.664062 9.484375 -6.59375 C 9.484375 -5.8125 9.285156 -5.148438 8.890625 -4.609375 C 8.492188 -4.066406 7.925781 -3.675781 7.1875 -3.4375 L 9.640625 0 Z M 5.359375 -4.078125 C 6.347656 -4.078125 7.101562 -4.296875 7.625 -4.734375 C 8.15625 -5.179688 8.421875 -5.800781 8.421875 -6.59375 C 8.421875 -7.40625 8.15625 -8.023438 7.625 -8.453125 C 7.101562 -8.890625 6.347656 -9.109375 5.359375 -9.109375 L 2.6875 -9.109375 L 2.6875 -4.078125 Z M 5.359375 -4.078125 "/></g></g></g><g fill="#3d3b3a" fill-opacity="1"><g transform="translate(30.087507, 13.110454)"><g><path d="M 8.71875 -0.921875 L 8.71875 0 L 1.640625 0 L 1.640625 -10.03125 L 8.515625 -10.03125 L 8.515625 -9.109375 L 2.6875 -9.109375 L 2.6875 -5.546875 L 7.875 -5.546875 L 7.875 -4.640625 L 2.6875 -4.640625 L 2.6875 -0.921875 Z M 8.71875 -0.921875 "/></g></g></g><g fill="#3d3b3a" fill-opacity="1"><g transform="translate(43.978054, 13.110454)"><g><path d="M 10.015625 -10.03125 L 10.015625 0 L 9.140625 0 L 2.6875 -8.140625 L 2.6875 0 L 1.640625 0 L 1.640625 -10.03125 L 2.5 -10.03125 L 8.96875 -1.890625 L 8.96875 -10.03125 Z M 10.015625 -10.03125 "/></g></g></g><g fill="#3d3b3a" fill-opacity="1"><g transform="translate(59.932826, 13.110454)"><g><path d="M 6.015625 0.09375 C 5.023438 0.09375 4.125 -0.128906 3.3125 -0.578125 C 2.507812 -1.023438 1.878906 -1.632812 1.421875 -2.40625 C 0.972656 -3.175781 0.75 -4.046875 0.75 -5.015625 C 0.75 -5.984375 0.972656 -6.851562 1.421875 -7.625 C 1.878906 -8.394531 2.507812 -9 3.3125 -9.4375 C 4.125 -9.882812 5.023438 -10.109375 6.015625 -10.109375 C 7.015625 -10.109375 7.910156 -9.890625 8.703125 -9.453125 C 9.503906 -9.015625 10.132812 -8.40625 10.59375 -7.625 C 11.050781 -6.851562 11.28125 -5.984375 11.28125 -5.015625 C 11.28125 -4.046875 11.050781 -3.171875 10.59375 -2.390625 C 10.132812 -1.617188 9.503906 -1.007812 8.703125 -0.5625 C 7.910156 -0.125 7.015625 0.09375 6.015625 0.09375 Z M 6.015625 -0.859375 C 6.804688 -0.859375 7.519531 -1.035156 8.15625 -1.390625 C 8.800781 -1.753906 9.304688 -2.253906 9.671875 -2.890625 C 10.035156 -3.523438 10.21875 -4.234375 10.21875 -5.015625 C 10.21875 -5.796875 10.035156 -6.503906 9.671875 -7.140625 C 9.304688 -7.773438 8.800781 -8.269531 8.15625 -8.625 C 7.519531 -8.988281 6.804688 -9.171875 6.015625 -9.171875 C 5.222656 -9.171875 4.503906 -8.988281 3.859375 -8.625 C 3.210938 -8.269531 2.707031 -7.773438 2.34375 -7.140625 C 1.976562 -6.503906 1.796875 -5.796875 1.796875 -5.015625 C 1.796875 -4.234375 1.976562 -3.523438 2.34375 -2.890625 C 2.707031 -2.253906 3.210938 -1.753906 3.859375 -1.390625 C 4.503906 -1.035156 5.222656 -0.859375 6.015625 -0.859375 Z M 6.015625 -0.859375 "/></g></g></g><g fill="#3d3b3a" fill-opacity="1"><g transform="translate(76.260305, 13.110454)"><g/></g></g><g fill="#3d3b3a" fill-opacity="1"><g transform="translate(84.316531, 13.110454)"><g><path d="M 8.703125 -5.015625 L 9.71875 -5.015625 L 9.71875 -1.1875 C 9.25 -0.78125 8.691406 -0.460938 8.046875 -0.234375 C 7.410156 -0.015625 6.738281 0.09375 6.03125 0.09375 C 5.03125 0.09375 4.128906 -0.125 3.328125 -0.5625 C 2.523438 -1.007812 1.894531 -1.617188 1.4375 -2.390625 C 0.976562 -3.171875 0.75 -4.046875 0.75 -5.015625 C 0.75 -5.984375 0.976562 -6.851562 1.4375 -7.625 C 1.894531 -8.40625 2.523438 -9.015625 3.328125 -9.453125 C 4.128906 -9.890625 5.035156 -10.109375 6.046875 -10.109375 C 6.804688 -10.109375 7.503906 -9.988281 8.140625 -9.75 C 8.785156 -9.507812 9.328125 -9.148438 9.765625 -8.671875 L 9.109375 -8 C 8.316406 -8.78125 7.3125 -9.171875 6.09375 -9.171875 C 5.28125 -9.171875 4.546875 -8.988281 3.890625 -8.625 C 3.234375 -8.269531 2.71875 -7.773438 2.34375 -7.140625 C 1.976562 -6.503906 1.796875 -5.796875 1.796875 -5.015625 C 1.796875 -4.234375 1.976562 -3.523438 2.34375 -2.890625 C 2.71875 -2.265625 3.226562 -1.769531 3.875 -1.40625 C 4.53125 -1.039062 5.265625 -0.859375 6.078125 -0.859375 C 7.109375 -0.859375 7.984375 -1.117188 8.703125 -1.640625 Z M 8.703125 -5.015625 "/></g></g></g><g fill="#3d3b3a" fill-opacity="1"><g transform="translate(99.697908, 13.110454)"><g><path d="M 5.671875 0.09375 C 4.367188 0.09375 3.351562 -0.28125 2.625 -1.03125 C 1.90625 -1.78125 1.546875 -2.863281 1.546875 -4.28125 L 1.546875 -10.03125 L 2.609375 -10.03125 L 2.609375 -4.328125 C 2.609375 -3.160156 2.867188 -2.289062 3.390625 -1.71875 C 3.921875 -1.144531 4.679688 -0.859375 5.671875 -0.859375 C 6.671875 -0.859375 7.429688 -1.144531 7.953125 -1.71875 C 8.484375 -2.289062 8.75 -3.160156 8.75 -4.328125 L 8.75 -10.03125 L 9.78125 -10.03125 L 9.78125 -4.28125 C 9.78125 -2.863281 9.421875 -1.78125 8.703125 -1.03125 C 7.984375 -0.28125 6.972656 0.09375 5.671875 0.09375 Z M 5.671875 0.09375 "/></g></g></g><g fill="#3d3b3a" fill-opacity="1"><g transform="translate(115.351648, 13.110454)"><g><path d="M 4.40625 0.09375 C 3.65625 0.09375 2.9375 -0.0234375 2.25 -0.265625 C 1.570312 -0.503906 1.046875 -0.820312 0.671875 -1.21875 L 1.09375 -2.03125 C 1.457031 -1.664062 1.9375 -1.367188 2.53125 -1.140625 C 3.132812 -0.921875 3.757812 -0.8125 4.40625 -0.8125 C 5.300781 -0.8125 5.972656 -0.976562 6.421875 -1.3125 C 6.867188 -1.644531 7.09375 -2.070312 7.09375 -2.59375 C 7.09375 -2.988281 6.96875 -3.304688 6.71875 -3.546875 C 6.476562 -3.785156 6.179688 -3.96875 5.828125 -4.09375 C 5.472656 -4.226562 4.984375 -4.375 4.359375 -4.53125 C 3.597656 -4.71875 2.992188 -4.898438 2.546875 -5.078125 C 2.097656 -5.253906 1.710938 -5.523438 1.390625 -5.890625 C 1.078125 -6.253906 0.921875 -6.742188 0.921875 -7.359375 C 0.921875 -7.867188 1.050781 -8.332031 1.3125 -8.75 C 1.582031 -9.164062 1.992188 -9.492188 2.546875 -9.734375 C 3.097656 -9.984375 3.785156 -10.109375 4.609375 -10.109375 C 5.179688 -10.109375 5.742188 -10.03125 6.296875 -9.875 C 6.847656 -9.71875 7.320312 -9.503906 7.71875 -9.234375 L 7.359375 -8.375 C 6.941406 -8.65625 6.492188 -8.863281 6.015625 -9 C 5.535156 -9.144531 5.066406 -9.21875 4.609375 -9.21875 C 3.734375 -9.21875 3.070312 -9.046875 2.625 -8.703125 C 2.1875 -8.367188 1.96875 -7.929688 1.96875 -7.390625 C 1.96875 -6.992188 2.085938 -6.671875 2.328125 -6.421875 C 2.566406 -6.179688 2.867188 -5.992188 3.234375 -5.859375 C 3.609375 -5.734375 4.109375 -5.59375 4.734375 -5.4375 C 5.460938 -5.257812 6.050781 -5.082031 6.5 -4.90625 C 6.957031 -4.726562 7.34375 -4.457031 7.65625 -4.09375 C 7.976562 -3.738281 8.140625 -3.257812 8.140625 -2.65625 C 8.140625 -2.144531 8.003906 -1.679688 7.734375 -1.265625 C 7.460938 -0.847656 7.039062 -0.515625 6.46875 -0.265625 C 5.90625 -0.0234375 5.21875 0.09375 4.40625 0.09375 Z M 4.40625 0.09375 "/></g></g></g><g fill="#3d3b3a" fill-opacity="1"><g transform="translate(128.468113, 13.110454)"><g><path d="M 3.578125 -9.109375 L 0.0625 -9.109375 L 0.0625 -10.03125 L 8.171875 -10.03125 L 8.171875 -9.109375 L 4.640625 -9.109375 L 4.640625 0 L 3.578125 0 Z M 3.578125 -9.109375 "/></g></g></g><g fill="#3d3b3a" fill-opacity="1"><g transform="translate(140.996842, 13.110454)"><g><path d="M 7.921875 -2.671875 L 2.328125 -2.671875 L 1.125 0 L 0.03125 0 L 4.609375 -10.03125 L 5.65625 -10.03125 L 10.25 0 L 9.125 0 Z M 7.53125 -3.546875 L 5.125 -8.921875 L 2.71875 -3.546875 Z M 7.53125 -3.546875 "/></g></g></g><g fill="#3d3b3a" fill-opacity="1"><g transform="translate(155.575468, 13.110454)"><g><path d="M 9.96875 -10.03125 L 5.53125 0 L 4.484375 0 L 0.046875 -10.03125 L 1.1875 -10.03125 L 5.03125 -1.3125 L 8.890625 -10.03125 Z M 9.96875 -10.03125 "/></g></g></g><g fill="#3d3b3a" fill-opacity="1"><g transform="translate(169.881731, 13.110454)"><g><path d="M 6.015625 0.09375 C 5.023438 0.09375 4.125 -0.128906 3.3125 -0.578125 C 2.507812 -1.023438 1.878906 -1.632812 1.421875 -2.40625 C 0.972656 -3.175781 0.75 -4.046875 0.75 -5.015625 C 0.75 -5.984375 0.972656 -6.851562 1.421875 -7.625 C 1.878906 -8.394531 2.507812 -9 3.3125 -9.4375 C 4.125 -9.882812 5.023438 -10.109375 6.015625 -10.109375 C 7.015625 -10.109375 7.910156 -9.890625 8.703125 -9.453125 C 9.503906 -9.015625 10.132812 -8.40625 10.59375 -7.625 C 11.050781 -6.851562 11.28125 -5.984375 11.28125 -5.015625 C 11.28125 -4.046875 11.050781 -3.171875 10.59375 -2.390625 C 10.132812 -1.617188 9.503906 -1.007812 8.703125 -0.5625 C 7.910156 -0.125 7.015625 0.09375 6.015625 0.09375 Z M 6.015625 -0.859375 C 6.804688 -0.859375 7.519531 -1.035156 8.15625 -1.390625 C 8.800781 -1.753906 9.304688 -2.253906 9.671875 -2.890625 C 10.035156 -3.523438 10.21875 -4.234375 10.21875 -5.015625 C 10.21875 -5.796875 10.035156 -6.503906 9.671875 -7.140625 C 9.304688 -7.773438 8.800781 -8.269531 8.15625 -8.625 C 7.519531 -8.988281 6.804688 -9.171875 6.015625 -9.171875 C 5.222656 -9.171875 4.503906 -8.988281 3.859375 -8.625 C 3.210938 -8.269531 2.707031 -7.773438 2.34375 -7.140625 C 1.976562 -6.503906 1.796875 -5.796875 1.796875 -5.015625 C 1.796875 -4.234375 1.976562 -3.523438 2.34375 -2.890625 C 2.707031 -2.253906 3.210938 -1.753906 3.859375 -1.390625 C 4.503906 -1.035156 5.222656 -0.859375 6.015625 -0.859375 Z M 6.015625 -0.859375 "/></g></g></g></g></g><path stroke-linecap="butt" transform="matrix(0.75, 0.000000000000000089, -0.000000000000000089, 0.75, 8.313865, 274.914827)" fill="none" stroke-linejoin="miter" d="M -0.00181978 0.998981 L 477.831545 0.998981 " stroke="#0cc0df" stroke-width="2" stroke-opacity="1" stroke-miterlimit="4"/><g fill="#3d3b3a" fill-opacity="1"><g transform="translate(250.213012, 290.545762)"><g><path d="M 1.609375 0.125 C 1.242188 0.125 0.957031 -0.0234375 0.75 -0.328125 C 0.550781 -0.628906 0.453125 -1.015625 0.453125 -1.484375 C 0.453125 -2.222656 0.578125 -2.914062 0.828125 -3.5625 C 1.078125 -4.21875 1.40625 -4.800781 1.8125 -5.3125 C 2.226562 -5.820312 2.679688 -6.21875 3.171875 -6.5 C 3.660156 -6.78125 4.144531 -6.921875 4.625 -6.921875 C 4.90625 -6.921875 5.144531 -6.847656 5.34375 -6.703125 C 5.539062 -6.566406 5.742188 -6.375 5.953125 -6.125 L 5.671875 -5.59375 C 5.503906 -5.78125 5.304688 -5.921875 5.078125 -6.015625 C 4.847656 -6.109375 4.609375 -6.15625 4.359375 -6.15625 C 3.984375 -6.15625 3.632812 -6.023438 3.3125 -5.765625 C 3 -5.503906 2.726562 -5.160156 2.5 -4.734375 C 2.28125 -4.304688 2.109375 -3.835938 1.984375 -3.328125 C 1.859375 -2.816406 1.796875 -2.296875 1.796875 -1.765625 C 1.796875 -1.492188 1.820312 -1.28125 1.875 -1.125 C 1.9375 -0.976562 2.039062 -0.90625 2.1875 -0.90625 C 2.351562 -0.90625 2.570312 -1.035156 2.84375 -1.296875 C 3.113281 -1.554688 3.414062 -1.921875 3.75 -2.390625 C 4.082031 -2.867188 4.398438 -3.410156 4.703125 -4.015625 C 5.015625 -4.617188 5.28125 -5.253906 5.5 -5.921875 L 5.578125 -6.25 L 6.390625 -9.6875 L 5.15625 -9.84375 L 5.25 -10.296875 L 7.640625 -10.96875 L 7.890625 -10.75 C 7.804688 -10.445312 7.703125 -10.066406 7.578125 -9.609375 C 7.453125 -9.160156 7.328125 -8.679688 7.203125 -8.171875 C 7.085938 -7.660156 6.96875 -7.164062 6.84375 -6.6875 L 6.140625 -3.90625 C 5.960938 -3.195312 5.820312 -2.566406 5.71875 -2.015625 C 5.613281 -1.460938 5.5625 -1.050781 5.5625 -0.78125 C 5.789062 -0.90625 6.007812 -1.0625 6.21875 -1.25 C 6.4375 -1.445312 6.648438 -1.675781 6.859375 -1.9375 L 7.234375 -1.484375 C 6.972656 -1.171875 6.703125 -0.890625 6.421875 -0.640625 C 6.148438 -0.398438 5.890625 -0.210938 5.640625 -0.078125 C 5.390625 0.0546875 5.160156 0.125 4.953125 0.125 C 4.742188 0.125 4.585938 0.0664062 4.484375 -0.046875 C 4.390625 -0.171875 4.34375 -0.332031 4.34375 -0.53125 C 4.34375 -0.726562 4.367188 -0.984375 4.421875 -1.296875 C 4.472656 -1.609375 4.5625 -2.019531 4.6875 -2.53125 C 4.820312 -3.050781 5 -3.707031 5.21875 -4.5 L 5.390625 -4.5 C 5.066406 -3.570312 4.679688 -2.765625 4.234375 -2.078125 C 3.785156 -1.390625 3.332031 -0.847656 2.875 -0.453125 C 2.425781 -0.0664062 2.003906 0.125 1.609375 0.125 Z M 1.609375 0.125 "/></g></g></g><g fill="#3d3b3a" fill-opacity="1"><g transform="translate(260.874521, 290.545762)"><g><path d="M 2.75 0.125 C 2.113281 0.125 1.582031 -0.0859375 1.15625 -0.515625 C 0.726562 -0.953125 0.515625 -1.546875 0.515625 -2.296875 C 0.515625 -2.859375 0.613281 -3.414062 0.8125 -3.96875 C 1.007812 -4.519531 1.28125 -5.015625 1.625 -5.453125 C 1.976562 -5.898438 2.390625 -6.253906 2.859375 -6.515625 C 3.328125 -6.785156 3.832031 -6.921875 4.375 -6.921875 C 4.894531 -6.921875 5.28125 -6.800781 5.53125 -6.5625 C 5.789062 -6.320312 5.921875 -6.039062 5.921875 -5.71875 C 5.921875 -5.4375 5.832031 -5.15625 5.65625 -4.875 C 5.488281 -4.601562 5.226562 -4.335938 4.875 -4.078125 C 4.519531 -3.816406 4.070312 -3.550781 3.53125 -3.28125 C 3 -3.019531 2.367188 -2.757812 1.640625 -2.5 L 1.640625 -3.171875 C 2.296875 -3.429688 2.847656 -3.679688 3.296875 -3.921875 C 3.753906 -4.171875 4.097656 -4.429688 4.328125 -4.703125 C 4.554688 -4.984375 4.671875 -5.269531 4.671875 -5.5625 C 4.671875 -5.78125 4.601562 -5.945312 4.46875 -6.0625 C 4.332031 -6.175781 4.15625 -6.234375 3.9375 -6.234375 C 3.570312 -6.234375 3.226562 -6.078125 2.90625 -5.765625 C 2.582031 -5.453125 2.320312 -5.023438 2.125 -4.484375 C 1.925781 -3.941406 1.828125 -3.316406 1.828125 -2.609375 C 1.828125 -2.054688 1.957031 -1.628906 2.21875 -1.328125 C 2.476562 -1.023438 2.804688 -0.875 3.203125 -0.875 C 3.460938 -0.875 3.765625 -0.957031 4.109375 -1.125 C 4.453125 -1.300781 4.785156 -1.601562 5.109375 -2.03125 L 5.484375 -1.5 C 5.109375 -0.988281 4.679688 -0.585938 4.203125 -0.296875 C 3.722656 -0.015625 3.238281 0.125 2.75 0.125 Z M 2.75 0.125 "/></g></g></g><g fill="#3d3b3a" fill-opacity="1"><g transform="translate(270.050428, 290.545762)"><g><path d="M 1.984375 0.0625 L 1.828125 -2.328125 C 1.785156 -3.140625 1.726562 -3.84375 1.65625 -4.4375 C 1.59375 -5.039062 1.519531 -5.5625 1.4375 -6 C 1.082031 -5.726562 0.753906 -5.332031 0.453125 -4.8125 L 0.03125 -5.28125 C 0.269531 -5.644531 0.503906 -5.945312 0.734375 -6.1875 C 0.972656 -6.4375 1.191406 -6.617188 1.390625 -6.734375 C 1.597656 -6.859375 1.78125 -6.921875 1.9375 -6.921875 C 2.164062 -6.921875 2.332031 -6.859375 2.4375 -6.734375 C 2.539062 -6.617188 2.617188 -6.390625 2.671875 -6.046875 C 2.722656 -5.722656 2.769531 -5.265625 2.8125 -4.671875 C 2.863281 -4.085938 2.914062 -3.425781 2.96875 -2.6875 L 3.078125 -0.765625 L 2.75 -0.71875 C 3.320312 -1.269531 3.789062 -1.832031 4.15625 -2.40625 C 4.519531 -2.988281 4.796875 -3.554688 4.984375 -4.109375 C 5.171875 -4.660156 5.265625 -5.164062 5.265625 -5.625 C 5.265625 -5.875 5.242188 -6.085938 5.203125 -6.265625 C 5.160156 -6.441406 5.109375 -6.597656 5.046875 -6.734375 C 5.128906 -6.796875 5.222656 -6.84375 5.328125 -6.875 C 5.429688 -6.90625 5.535156 -6.921875 5.640625 -6.921875 C 5.878906 -6.921875 6.078125 -6.84375 6.234375 -6.6875 C 6.390625 -6.539062 6.46875 -6.257812 6.46875 -5.84375 C 6.46875 -5.457031 6.367188 -5.015625 6.171875 -4.515625 C 5.972656 -4.015625 5.707031 -3.5 5.375 -2.96875 C 5.039062 -2.4375 4.648438 -1.90625 4.203125 -1.375 C 3.765625 -0.851562 3.289062 -0.375 2.78125 0.0625 Z M 1.984375 0.0625 "/></g></g></g><g fill="#3d3b3a" fill-opacity="1"><g transform="translate(279.858506, 290.545762)"><g/></g></g><g fill="#3d3b3a" fill-opacity="1"><g transform="translate(285.936772, 290.545762)"><g><path d="M 0.609375 -5.96875 L 0.734375 -6.5 L 1.96875 -6.765625 L 4.734375 -6.765625 L 4.5625 -5.96875 Z M 5.453125 -11.03125 C 5.679688 -11.03125 5.863281 -10.972656 6 -10.859375 C 6.132812 -10.753906 6.203125 -10.597656 6.203125 -10.390625 C 6.203125 -10.253906 6.164062 -10.113281 6.09375 -9.96875 C 6.019531 -9.832031 5.914062 -9.695312 5.78125 -9.5625 C 5.632812 -9.6875 5.472656 -9.773438 5.296875 -9.828125 C 5.128906 -9.890625 4.96875 -9.921875 4.8125 -9.921875 C 4.507812 -9.921875 4.222656 -9.800781 3.953125 -9.5625 C 3.691406 -9.320312 3.507812 -8.925781 3.40625 -8.375 L 3.09375 -6.765625 L 3.03125 -6.21875 L 1.953125 -0.75 C 1.816406 -0.0625 1.625 0.546875 1.375 1.078125 C 1.132812 1.617188 0.851562 2.078125 0.53125 2.453125 C 0.207031 2.828125 -0.128906 3.113281 -0.484375 3.3125 C -0.847656 3.507812 -1.207031 3.609375 -1.5625 3.609375 C -1.789062 3.609375 -1.976562 3.550781 -2.125 3.4375 C -2.269531 3.320312 -2.34375 3.164062 -2.34375 2.96875 C -2.34375 2.820312 -2.304688 2.675781 -2.234375 2.53125 C -2.171875 2.394531 -2.070312 2.265625 -1.9375 2.140625 C -1.78125 2.265625 -1.609375 2.359375 -1.421875 2.421875 C -1.234375 2.484375 -1.054688 2.515625 -0.890625 2.515625 C -0.648438 2.515625 -0.445312 2.445312 -0.28125 2.3125 C -0.113281 2.1875 0.03125 1.960938 0.15625 1.640625 C 0.28125 1.328125 0.394531 0.878906 0.5 0.296875 L 2.03125 -7.28125 C 2.125 -7.769531 2.285156 -8.238281 2.515625 -8.6875 C 2.742188 -9.132812 3.019531 -9.535156 3.34375 -9.890625 C 3.664062 -10.242188 4.007812 -10.519531 4.375 -10.71875 C 4.75 -10.925781 5.109375 -11.03125 5.453125 -11.03125 Z M 5.453125 -11.03125 "/></g></g></g><g fill="#3d3b3a" fill-opacity="1"><g transform="translate(293.152946, 290.545762)"><g><path d="M 2.859375 -6.921875 C 3.054688 -6.921875 3.207031 -6.859375 3.3125 -6.734375 C 3.425781 -6.617188 3.484375 -6.457031 3.484375 -6.25 C 3.484375 -6.09375 3.4375 -5.847656 3.34375 -5.515625 C 3.257812 -5.191406 3.15625 -4.8125 3.03125 -4.375 C 2.914062 -3.945312 2.796875 -3.519531 2.671875 -3.09375 C 2.546875 -2.664062 2.441406 -2.28125 2.359375 -1.9375 C 2.273438 -1.601562 2.234375 -1.363281 2.234375 -1.21875 C 2.234375 -1.125 2.253906 -1.046875 2.296875 -0.984375 C 2.347656 -0.921875 2.4375 -0.890625 2.5625 -0.890625 C 2.78125 -0.890625 3.023438 -1.007812 3.296875 -1.25 C 3.566406 -1.488281 3.84375 -1.8125 4.125 -2.21875 C 4.414062 -2.632812 4.695312 -3.097656 4.96875 -3.609375 C 5.25 -4.128906 5.492188 -4.660156 5.703125 -5.203125 C 5.921875 -5.753906 6.09375 -6.285156 6.21875 -6.796875 L 7.40625 -6.796875 C 7.226562 -6.222656 7.054688 -5.632812 6.890625 -5.03125 C 6.722656 -4.425781 6.578125 -3.84375 6.453125 -3.28125 C 6.328125 -2.726562 6.222656 -2.234375 6.140625 -1.796875 C 6.066406 -1.359375 6.03125 -1.019531 6.03125 -0.78125 C 6.269531 -0.90625 6.488281 -1.0625 6.6875 -1.25 C 6.894531 -1.445312 7.101562 -1.675781 7.3125 -1.9375 L 7.703125 -1.484375 C 7.429688 -1.171875 7.160156 -0.890625 6.890625 -0.640625 C 6.628906 -0.398438 6.367188 -0.210938 6.109375 -0.078125 C 5.847656 0.0546875 5.609375 0.125 5.390625 0.125 C 5.203125 0.125 5.054688 0.0664062 4.953125 -0.046875 C 4.859375 -0.171875 4.8125 -0.332031 4.8125 -0.53125 C 4.8125 -0.726562 4.835938 -0.984375 4.890625 -1.296875 C 4.953125 -1.617188 5.046875 -2.035156 5.171875 -2.546875 C 5.296875 -3.066406 5.46875 -3.71875 5.6875 -4.5 L 5.84375 -4.5 C 5.644531 -3.9375 5.398438 -3.375 5.109375 -2.8125 C 4.828125 -2.257812 4.515625 -1.757812 4.171875 -1.3125 C 3.835938 -0.875 3.484375 -0.523438 3.109375 -0.265625 C 2.734375 -0.00390625 2.347656 0.125 1.953125 0.125 C 1.640625 0.125 1.394531 0.0390625 1.21875 -0.125 C 1.050781 -0.300781 0.96875 -0.550781 0.96875 -0.875 C 0.96875 -1.039062 1.007812 -1.289062 1.09375 -1.625 C 1.175781 -1.96875 1.273438 -2.351562 1.390625 -2.78125 C 1.515625 -3.21875 1.640625 -3.648438 1.765625 -4.078125 C 1.898438 -4.515625 2.007812 -4.90625 2.09375 -5.25 C 2.1875 -5.59375 2.234375 -5.847656 2.234375 -6.015625 C 1.992188 -5.890625 1.765625 -5.726562 1.546875 -5.53125 C 1.335938 -5.332031 1.128906 -5.085938 0.921875 -4.796875 L 0.546875 -5.296875 C 0.816406 -5.628906 1.082031 -5.914062 1.34375 -6.15625 C 1.613281 -6.40625 1.878906 -6.59375 2.140625 -6.71875 C 2.410156 -6.851562 2.648438 -6.921875 2.859375 -6.921875 Z M 2.859375 -6.921875 "/></g></g></g><g fill="#3d3b3a" fill-opacity="1"><g transform="translate(304.288585, 290.545762)"><g><path d="M 1.1875 0.125 C 0.976562 0.125 0.820312 0.0664062 0.71875 -0.046875 C 0.613281 -0.160156 0.5625 -0.304688 0.5625 -0.484375 C 0.5625 -0.617188 0.582031 -0.773438 0.625 -0.953125 C 0.664062 -1.140625 0.726562 -1.410156 0.8125 -1.765625 C 0.894531 -2.128906 1.003906 -2.613281 1.140625 -3.21875 L 2.65625 -9.6875 L 1.515625 -9.84375 L 1.609375 -10.296875 L 3.90625 -10.96875 L 4.15625 -10.75 C 4.03125 -10.269531 3.90625 -9.796875 3.78125 -9.328125 C 3.664062 -8.859375 3.539062 -8.320312 3.40625 -7.71875 L 2.203125 -2.75 C 2.148438 -2.519531 2.09375 -2.269531 2.03125 -2 C 1.96875 -1.738281 1.914062 -1.5 1.875 -1.28125 C 1.84375 -1.0625 1.820312 -0.894531 1.8125 -0.78125 C 2.0625 -0.90625 2.285156 -1.0625 2.484375 -1.25 C 2.691406 -1.445312 2.898438 -1.675781 3.109375 -1.9375 L 3.5 -1.484375 C 3.226562 -1.171875 2.957031 -0.890625 2.6875 -0.640625 C 2.425781 -0.398438 2.164062 -0.210938 1.90625 -0.078125 C 1.644531 0.0546875 1.40625 0.125 1.1875 0.125 Z M 1.1875 0.125 "/></g></g></g><g fill="#3d3b3a" fill-opacity="1"><g transform="translate(311.283499, 290.545762)"><g><path d="M 1.1875 0.125 C 0.976562 0.125 0.820312 0.0664062 0.71875 -0.046875 C 0.613281 -0.160156 0.5625 -0.304688 0.5625 -0.484375 C 0.5625 -0.617188 0.582031 -0.773438 0.625 -0.953125 C 0.664062 -1.140625 0.726562 -1.410156 0.8125 -1.765625 C 0.894531 -2.128906 1.003906 -2.613281 1.140625 -3.21875 L 2.65625 -9.6875 L 1.515625 -9.84375 L 1.609375 -10.296875 L 3.90625 -10.96875 L 4.15625 -10.75 C 4.03125 -10.269531 3.90625 -9.796875 3.78125 -9.328125 C 3.664062 -8.859375 3.539062 -8.320312 3.40625 -7.71875 L 2.203125 -2.75 C 2.148438 -2.519531 2.09375 -2.269531 2.03125 -2 C 1.96875 -1.738281 1.914062 -1.5 1.875 -1.28125 C 1.84375 -1.0625 1.820312 -0.894531 1.8125 -0.78125 C 2.0625 -0.90625 2.285156 -1.0625 2.484375 -1.25 C 2.691406 -1.445312 2.898438 -1.675781 3.109375 -1.9375 L 3.5 -1.484375 C 3.226562 -1.171875 2.957031 -0.890625 2.6875 -0.640625 C 2.425781 -0.398438 2.164062 -0.210938 1.90625 -0.078125 C 1.644531 0.0546875 1.40625 0.125 1.1875 0.125 Z M 1.1875 0.125 "/></g></g></g><g fill="#3d3b3a" fill-opacity="1"><g transform="translate(318.278414, 290.545762)"><g/></g></g><g fill="#3d3b3a" fill-opacity="1"><g transform="translate(324.35668, 290.545762)"><g><path d="M 1.8125 0.125 C 1.476562 0.125 1.171875 0.0703125 0.890625 -0.03125 C 0.609375 -0.144531 0.382812 -0.289062 0.21875 -0.46875 C 0.0507812 -0.65625 -0.03125 -0.851562 -0.03125 -1.0625 C -0.03125 -1.195312 -0.00390625 -1.320312 0.046875 -1.4375 C 0.0976562 -1.5625 0.171875 -1.675781 0.265625 -1.78125 C 0.566406 -1.4375 0.878906 -1.160156 1.203125 -0.953125 C 1.535156 -0.742188 1.851562 -0.640625 2.15625 -0.640625 C 2.445312 -0.640625 2.675781 -0.710938 2.84375 -0.859375 C 3.007812 -1.015625 3.09375 -1.238281 3.09375 -1.53125 C 3.09375 -1.707031 3.03125 -1.894531 2.90625 -2.09375 C 2.789062 -2.300781 2.554688 -2.550781 2.203125 -2.84375 C 1.847656 -3.164062 1.570312 -3.4375 1.375 -3.65625 C 1.1875 -3.882812 1.054688 -4.085938 0.984375 -4.265625 C 0.921875 -4.453125 0.890625 -4.644531 0.890625 -4.84375 C 0.890625 -5.226562 0.992188 -5.578125 1.203125 -5.890625 C 1.421875 -6.210938 1.71875 -6.460938 2.09375 -6.640625 C 2.46875 -6.828125 2.878906 -6.921875 3.328125 -6.921875 C 3.597656 -6.921875 3.851562 -6.882812 4.09375 -6.8125 C 4.332031 -6.738281 4.535156 -6.632812 4.703125 -6.5 C 4.867188 -6.363281 4.953125 -6.191406 4.953125 -5.984375 C 4.953125 -5.859375 4.925781 -5.742188 4.875 -5.640625 C 4.820312 -5.546875 4.742188 -5.445312 4.640625 -5.34375 C 4.378906 -5.613281 4.097656 -5.820312 3.796875 -5.96875 C 3.503906 -6.125 3.222656 -6.203125 2.953125 -6.203125 C 2.660156 -6.203125 2.425781 -6.113281 2.25 -5.9375 C 2.070312 -5.769531 1.984375 -5.550781 1.984375 -5.28125 C 1.984375 -5.15625 2.015625 -5.023438 2.078125 -4.890625 C 2.140625 -4.753906 2.238281 -4.609375 2.375 -4.453125 C 2.519531 -4.296875 2.710938 -4.101562 2.953125 -3.875 C 3.296875 -3.5625 3.554688 -3.296875 3.734375 -3.078125 C 3.910156 -2.859375 4.035156 -2.664062 4.109375 -2.5 C 4.179688 -2.332031 4.21875 -2.144531 4.21875 -1.9375 C 4.21875 -1.570312 4.101562 -1.226562 3.875 -0.90625 C 3.65625 -0.59375 3.359375 -0.34375 2.984375 -0.15625 C 2.617188 0.03125 2.226562 0.125 1.8125 0.125 Z M 1.8125 0.125 "/></g></g></g><g fill="#3d3b3a" fill-opacity="1"><g transform="translate(332.394677, 290.545762)"><g><path d="M 4.453125 -1.75 C 3.960938 -1.007812 3.484375 -0.507812 3.015625 -0.25 C 2.554688 0 2.148438 0.125 1.796875 0.125 C 1.460938 0.125 1.203125 0.03125 1.015625 -0.15625 C 0.828125 -0.351562 0.734375 -0.613281 0.734375 -0.9375 C 0.734375 -1.050781 0.742188 -1.179688 0.765625 -1.328125 C 0.796875 -1.472656 0.832031 -1.648438 0.875 -1.859375 L 1.84375 -5.96875 L 0.75 -5.96875 L 0.828125 -6.3125 L 3.265625 -8.171875 L 3.578125 -8.171875 L 3.109375 -6.359375 L 2.125 -2.046875 C 2.082031 -1.847656 2.046875 -1.691406 2.015625 -1.578125 C 1.992188 -1.472656 1.984375 -1.378906 1.984375 -1.296875 C 1.984375 -1.003906 2.117188 -0.859375 2.390625 -0.859375 C 2.554688 -0.859375 2.78125 -0.957031 3.0625 -1.15625 C 3.34375 -1.363281 3.6875 -1.738281 4.09375 -2.28125 Z M 2.46875 -5.96875 L 2.640625 -6.765625 L 4.953125 -6.765625 L 4.796875 -5.96875 Z M 2.46875 -5.96875 "/></g></g></g><g fill="#3d3b3a" fill-opacity="1"><g transform="translate(340.211415, 290.545762)"><g><path d="M 1.59375 0.125 C 1.238281 0.125 0.957031 -0.0234375 0.75 -0.328125 C 0.550781 -0.628906 0.453125 -1.015625 0.453125 -1.484375 C 0.453125 -2.234375 0.578125 -2.929688 0.828125 -3.578125 C 1.078125 -4.222656 1.40625 -4.800781 1.8125 -5.3125 C 2.226562 -5.820312 2.679688 -6.21875 3.171875 -6.5 C 3.660156 -6.78125 4.140625 -6.921875 4.609375 -6.921875 C 4.898438 -6.921875 5.148438 -6.847656 5.359375 -6.703125 C 5.566406 -6.566406 5.773438 -6.375 5.984375 -6.125 L 5.671875 -5.609375 C 5.492188 -5.796875 5.285156 -5.929688 5.046875 -6.015625 C 4.816406 -6.109375 4.578125 -6.15625 4.328125 -6.15625 C 3.992188 -6.15625 3.671875 -6.035156 3.359375 -5.796875 C 3.054688 -5.554688 2.789062 -5.234375 2.5625 -4.828125 C 2.332031 -4.421875 2.144531 -3.953125 2 -3.421875 C 1.863281 -2.898438 1.796875 -2.347656 1.796875 -1.765625 C 1.796875 -1.492188 1.820312 -1.28125 1.875 -1.125 C 1.9375 -0.976562 2.039062 -0.90625 2.1875 -0.90625 C 2.351562 -0.90625 2.570312 -1.035156 2.84375 -1.296875 C 3.125 -1.554688 3.425781 -1.921875 3.75 -2.390625 C 4.082031 -2.867188 4.398438 -3.410156 4.703125 -4.015625 C 5.015625 -4.617188 5.28125 -5.253906 5.5 -5.921875 L 5.65625 -6.25 L 6.265625 -6.796875 L 6.9375 -6.796875 C 6.757812 -6.222656 6.585938 -5.632812 6.421875 -5.03125 C 6.253906 -4.425781 6.101562 -3.84375 5.96875 -3.28125 C 5.84375 -2.726562 5.742188 -2.234375 5.671875 -1.796875 C 5.597656 -1.359375 5.5625 -1.019531 5.5625 -0.78125 C 5.789062 -0.90625 6.007812 -1.0625 6.21875 -1.25 C 6.4375 -1.445312 6.648438 -1.675781 6.859375 -1.9375 L 7.234375 -1.484375 C 6.972656 -1.171875 6.703125 -0.890625 6.421875 -0.640625 C 6.148438 -0.398438 5.890625 -0.210938 5.640625 -0.078125 C 5.390625 0.0546875 5.15625 0.125 4.9375 0.125 C 4.738281 0.125 4.585938 0.0664062 4.484375 -0.046875 C 4.390625 -0.171875 4.34375 -0.332031 4.34375 -0.53125 C 4.34375 -0.726562 4.367188 -0.984375 4.421875 -1.296875 C 4.472656 -1.609375 4.5625 -2.019531 4.6875 -2.53125 C 4.820312 -3.050781 5 -3.707031 5.21875 -4.5 L 5.390625 -4.5 C 5.066406 -3.570312 4.679688 -2.765625 4.234375 -2.078125 C 3.785156 -1.390625 3.332031 -0.847656 2.875 -0.453125 C 2.425781 -0.0664062 2 0.125 1.59375 0.125 Z M 1.59375 0.125 "/></g></g></g><g fill="#3d3b3a" fill-opacity="1"><g transform="translate(350.872925, 290.545762)"><g><path d="M 3.859375 -6.171875 C 3.523438 -6.171875 3.203125 -6.019531 2.890625 -5.71875 C 2.585938 -5.425781 2.335938 -5.015625 2.140625 -4.484375 C 1.941406 -3.960938 1.84375 -3.335938 1.84375 -2.609375 C 1.851562 -2.054688 1.976562 -1.628906 2.21875 -1.328125 C 2.46875 -1.035156 2.78125 -0.890625 3.15625 -0.890625 C 3.375 -0.890625 3.648438 -0.972656 3.984375 -1.140625 C 4.316406 -1.304688 4.644531 -1.601562 4.96875 -2.03125 L 5.34375 -1.5 C 4.96875 -0.988281 4.539062 -0.585938 4.0625 -0.296875 C 3.582031 -0.015625 3.160156 0.125 2.796875 0.125 C 2.359375 0.125 1.960938 0.03125 1.609375 -0.15625 C 1.265625 -0.351562 0.992188 -0.632812 0.796875 -1 C 0.597656 -1.363281 0.5 -1.796875 0.5 -2.296875 C 0.5 -2.859375 0.59375 -3.414062 0.78125 -3.96875 C 0.976562 -4.53125 1.253906 -5.03125 1.609375 -5.46875 C 1.960938 -5.914062 2.378906 -6.269531 2.859375 -6.53125 C 3.335938 -6.789062 3.859375 -6.921875 4.421875 -6.921875 C 4.847656 -6.921875 5.1875 -6.84375 5.4375 -6.6875 C 5.695312 -6.53125 5.828125 -6.300781 5.828125 -6 C 5.828125 -5.851562 5.796875 -5.71875 5.734375 -5.59375 C 5.679688 -5.46875 5.597656 -5.359375 5.484375 -5.265625 C 5.210938 -5.546875 4.929688 -5.765625 4.640625 -5.921875 C 4.359375 -6.085938 4.097656 -6.171875 3.859375 -6.171875 Z M 3.859375 -6.171875 "/></g></g></g><g fill="#3d3b3a" fill-opacity="1"><g transform="translate(359.606311, 290.545762)"><g><path d="M 0.359375 0 C 0.535156 -0.707031 0.710938 -1.425781 0.890625 -2.15625 C 1.078125 -2.882812 1.25 -3.585938 1.40625 -4.265625 L 2.640625 -9.6875 L 1.5 -9.84375 L 1.578125 -10.296875 L 3.875 -10.96875 L 4.140625 -10.75 C 4.054688 -10.445312 3.972656 -10.132812 3.890625 -9.8125 C 3.804688 -9.488281 3.722656 -9.15625 3.640625 -8.8125 C 3.554688 -8.476562 3.460938 -8.125 3.359375 -7.75 L 2.5 -4.203125 C 2.332031 -3.492188 2.171875 -2.789062 2.015625 -2.09375 C 1.859375 -1.40625 1.703125 -0.707031 1.546875 0 Z M 4.609375 0.125 C 4.390625 0.125 4.210938 0.0507812 4.078125 -0.09375 C 3.953125 -0.238281 3.828125 -0.46875 3.703125 -0.78125 L 2.6875 -3.28125 L 2.046875 -3.28125 L 2.171875 -3.6875 L 2.828125 -3.84375 L 5.25 -6.03125 L 4.234375 -6.21875 L 4.40625 -6.796875 L 7.640625 -6.796875 L 7.5625 -6.21875 L 6.46875 -6.015625 L 3.515625 -3.65625 L 3.609375 -4.046875 C 3.910156 -3.367188 4.203125 -2.734375 4.484375 -2.140625 C 4.773438 -1.546875 5.007812 -1.09375 5.1875 -0.78125 C 5.40625 -0.90625 5.625 -1.0625 5.84375 -1.25 C 6.0625 -1.445312 6.273438 -1.675781 6.484375 -1.9375 L 6.859375 -1.484375 C 6.597656 -1.171875 6.332031 -0.890625 6.0625 -0.640625 C 5.789062 -0.398438 5.53125 -0.210938 5.28125 -0.078125 C 5.039062 0.0546875 4.816406 0.125 4.609375 0.125 Z M 4.609375 0.125 "/></g></g></g></svg>